<mxfile host="app.diagrams.net" modified="2023-10-22T08:28:56.613Z" agent="Mozilla/5.0 (Macintosh; Intel Mac OS X 10_15_7) AppleWebKit/537.36 (KHTML, like Gecko) Chrome/117.0.0.0 Safari/537.36" version="21.7.5" etag="3tDOpHGN6aDJdowwDahx" type="github">
  <diagram name="Page-1" id="PbikMbftjugT_0E8H3He">
    <mxGraphModel>
      <root>
        <mxCell id="0" />
        <mxCell id="1" parent="0" />
      </root>
    </mxGraphModel>
  </diagram>
</mxfile>
